<svg xmlns="http://www.w3.org/2000/svg" version="1.1" xmlns:xlink="http://www.w3.org/1999/xlink" xmlns:svgjs="http://svgjs.com/svgjs" width="100%" height="100%" viewBox="0 0 1000 600"><rect width="1000" height="600" x="0" y="0" fill="#96351e"/><g><circle r="166.66666666666666" cx="263.00515238444007" cy="285.2273663469082" fill="#dbb98f" transform="matrix(1.297508720805001,0,0,1.297508720805001,0,-70.08500473686215)"/><path d="M244.7110177666862 360.2273841278728L232.66438571559695 326.86747998639487L167.22995008325347 326.86747998639487L155.18331803216418 360.2273841278728L134.5276784606935 360.2273841278728L188.752468884207 211.06437188237535L211.3511136252082 211.06437188237535L265.36665733815687 360.2273841278728L244.7110177666862 360.2273841278728ZM172.81982649405666 310.9348375962445L227.07450930479374 310.9348375962445L199.93222170581345 235.18752837177746L172.81982649405666 310.9348375962445ZM391.4826390342999 360.2273841278728L368.0470074510394 360.2273841278728L332.2957123316777 298.8882055451552L308.62094165062877 298.8882055451552L308.62094165062877 360.2273841278728L289.0414280192058 360.2273841278728L289.0414280192058 210.22738504011605L337.4670953213513 210.22738504011605Q354.4758636515492 210.22738504011605 366.1936794431795 216.0265081614841Q377.94138762203335 221.82563128285213 383.74051074340133 231.7499038410696Q389.56952625199295 241.64428401206348 389.56952625199295 254.34854858207078L389.56952625199295 254.34854858207078Q389.56952625199295 269.832805163868 380.63170247215254 281.6701905043924Q371.6938786923121 293.5075758449168 353.81823113263124 297.39358618397785L353.81823113263124 297.39358618397785L391.4826390342999 360.2273841278728ZM308.62094165062877 226.3692741408312L308.62094165062877 283.16480986556974L337.4670953213513 283.16480986556974Q353.3997377115016 283.16480986556974 361.35111271296495 275.3330044130005Q369.33238010165195 267.4713065732078 369.33238010165195 254.34854858207078L369.33238010165195 254.34854858207078Q369.33238010165195 240.9866514931455 361.47068226185917 233.66301662337656Q353.6089844220664 226.3692741408312 337.4670953213513 226.3692741408312L337.4670953213513 226.3692741408312L308.62094165062877 226.3692741408312Z " fill="#96351e" transform="matrix(1.297508720805001,0,0,1.297508720805001,0,-70.08500473686215)"/><path d="M605.9839194684567 210.22738337836174L605.9839194684567 226.75694129750025L533.4375263789045 226.75694129750025L533.4375263789045 273.877660226711Q538.2012531403229 267.2486187695565 547.4991294698383 263.0301378422764Q556.7970057993537 258.78295976583104 567.5297395871277 258.78295976583104L567.5297395871277 258.78295976583104Q584.6906347878999 258.78295976583104 595.4233685756739 265.92854990795865Q606.1847995126129 273.0454429009211 610.8337376773707 284.29472537366803Q615.4826758421284 295.57270499558024 615.4826758421284 308.1707534790903L615.4826758421284 308.1707534790903Q615.4826758421284 323.0358767466489 609.88673175492 334.83040505353415Q604.3194848168769 346.59623621125434 592.8406251508085 353.426157712565Q581.3904626339053 360.2273820647106 564.4304474772891 360.2273820647106L564.4304474772891 360.2273820647106Q542.7354027084199 360.2273820647106 529.3051368991198 349.0928881886242Q515.8748710898199 337.9296971633727 513.0051561733028 319.33394450434184L513.0051561733028 319.33394450434184L531.3713316390122 319.33394450434184Q534.0688636605382 331.0997756620619 542.7354027084199 337.7288171192165Q551.4306389054667 344.3291614272058 564.6600246706105 344.3291614272058L564.6600246706105 344.3291614272058Q580.9600053964277 344.3291614272058 589.2247843559969 334.5147364127173Q597.4895633155661 324.7003113982288 597.4895633155661 308.5725135674028L597.4895633155661 308.5725135674028Q597.4895633155661 292.4734128857418 589.2247843559969 283.6920852411995Q580.9600053964277 274.91075759665716 564.8609047147668 274.91075759665716L564.8609047147668 274.91075759665716Q553.8985937336714 274.91075759665716 545.7486033707628 280.16233589388344Q537.5699158586891 285.4426113402749 533.867983616382 294.5396076256342L533.867983616382 294.5396076256342L516.1044482831412 294.5396076256342L516.1044482831412 210.22738337836174L605.9839194684567 210.22738337836174ZM655.3430160325508 227.58915862329022L635.5132859594178 227.58915862329022L635.5132859594178 210.42826342251794L674.3692259290592 210.42826342251794L674.3692259290592 359.8256219763981L655.3430160325508 359.8256219763981L655.3430160325508 227.58915862329022Z " fill="#dbb98f" transform="matrix(1.297508720805001,0,0,1.297508720805001,0,-70.08500473686215)"/></g></svg>